<?xml version="1.0" encoding="UTF-8"?>
<svg id="Layer_1" xmlns="http://www.w3.org/2000/svg" viewBox="0 0 1080 1080">
  <defs>
    <style>
      .cls-1 {
        fill: #fff;
      }
    </style>
  </defs>
  <path class="cls-1" d="M509.87,737.87h62.27c-3.86-34.82-7.72-69.64-11.58-104.46,13.73,14.05,35.34,32.87,65.81,48.21,39.86,20.07,76.46,24.93,98.43,26.12,2.01-17.41,4.02-34.82,6.03-52.23-18.4-1.63-39.42-4.66-62.27-10.04-26.38-6.22-49.27-14.18-68.3-22.1,25.79-18.28,59.95-47.24,90.4-90.4,53.49-75.84,65.19-152.6,68.3-190.84h-64.28c-1.44,27.33-7.63,76.82-36.16,130.58-27.41,51.65-63.01,83.8-84.37,100.44v-231.02h-66.29v231.02c-21.59-15.97-58.02-47.26-86.38-98.43-30.26-54.6-36.67-105.34-38.17-132.59h-62.27c1,32.72,7.68,103.97,54.24,176.78,35.17,54.99,78.19,87.58,104.46,104.46-17.17,7.12-37.34,14.23-60.27,20.09-26.07,6.66-49.88,10.22-70.31,12.05,2.01,17.41,4.02,34.82,6.03,52.23,20.88-1.77,51.9-6.85,86.38-22.1,36.63-16.2,62.33-37.32,77.87-52.23-3.19,34.82-6.38,69.64-9.57,104.46Z"/>
</svg>